<svg width="218" height="52" viewBox="0 0 218 52" fill="none" xmlns="http://www.w3.org/2000/svg">
<g clip-path="url(#clip0_1_2222)">
<g clip-path="url(#clip1_1_2222)">
<path d="M34.6384 30.7754C32.8797 30.7754 32.0386 29.9008 32.0386 28.1513V6.36236C32.0386 4.61289 32.8797 3.73816 34.6384 3.73816H45.2669C46.3374 3.73816 47.3314 3.97672 48.249 4.37432C49.1666 4.77193 49.9312 5.40811 50.5429 6.1238C51.2312 6.83949 51.6899 7.71423 52.0723 8.6685C52.4545 9.62273 52.6075 10.7361 52.6075 11.8493C52.6075 14.0759 51.9958 15.5868 50.6959 17.0977C51.9958 18.6087 52.6075 20.4377 52.6075 22.6643C52.6075 23.7775 52.4545 24.8909 52.0723 25.8451C51.6899 26.7994 51.1547 27.6742 50.5429 28.3898C49.8548 29.1055 49.0901 29.6622 48.249 30.0598C47.3314 30.4573 46.3374 30.6959 45.3434 30.6959L34.6384 30.7754ZM36.8558 8.74798V14.9507H45.2669C45.6492 14.9507 46.0315 14.8712 46.3374 14.7121C46.6433 14.553 46.9491 14.3145 47.102 13.9965C47.255 13.6784 47.4844 13.3602 47.5609 13.0421C47.6372 12.6446 47.7137 12.247 47.7137 11.8493C47.7137 11.4518 47.6372 11.0541 47.5609 10.6565C47.4844 10.259 47.255 9.9408 47.102 9.70229C46.8726 9.38421 46.6433 9.22518 46.2609 8.98658C45.955 8.82754 45.5728 8.74798 45.1904 8.74798H36.8558ZM36.8558 25.7656H45.2669C45.6492 25.7656 46.0315 25.6861 46.3374 25.527C46.6433 25.368 46.9491 25.1294 47.102 24.8909C47.3314 24.5728 47.4844 24.2547 47.5609 23.9366C47.6372 23.539 47.7137 23.1414 47.7137 22.7437C47.7137 22.3462 47.6372 21.9486 47.5609 21.5509C47.4844 21.1534 47.255 20.8353 47.0256 20.5171C46.7961 20.1991 46.5668 19.9606 46.1845 19.8015C45.8786 19.6425 45.4963 19.5629 45.1139 19.5629H36.7029L36.8558 25.7656ZM57.3483 6.36236C57.3483 4.61289 58.1894 3.81768 59.8716 3.81768H62.0891V6.20332C62.0891 7.95279 61.2479 8.82754 59.4892 8.82754H57.3483V6.36236ZM57.3483 13.2012C57.3483 11.5313 58.1894 10.6565 59.8716 10.6565H62.0891V30.855H59.8716C58.1894 30.855 57.3483 29.9802 57.3483 28.3103V13.2012ZM67.4416 13.2012C67.4416 11.4518 68.2827 10.6565 69.9649 10.6565H72.1823V18.2111H72.947C73.2528 18.2111 73.5587 18.2111 73.7882 18.2111C74.0175 18.2111 74.3234 18.1315 74.4763 17.893L77.8407 12.247C78.1466 11.7699 78.5289 11.3722 78.9877 11.0541C79.4465 10.7361 79.9053 10.6565 80.4405 10.6565H84.2637L79.37 18.9268C79.2936 19.0858 79.1407 19.2449 78.9877 19.4834C79.5229 19.8015 79.9818 20.2786 80.364 20.7557C80.7464 21.3124 81.1287 21.8691 81.4345 22.5847L84.8754 30.7754H81.7404C81.1287 30.7754 80.517 30.6164 80.1347 30.3779C79.7523 30.1393 79.37 29.7416 79.1407 29.2645L77.1526 24.5728C76.8467 23.8571 76.3115 23.2209 75.5468 23.2209H72.1823V30.855H69.9649C68.2827 30.855 67.4416 29.9802 67.4416 28.3103C67.4416 28.2307 67.4416 13.2012 67.4416 13.2012ZM121.426 10.1794C122.649 10.1794 123.796 10.3384 124.867 10.7361C125.937 11.1336 126.931 11.6903 127.848 12.4855C129.76 14.1555 130.754 16.2231 130.754 18.6087V30.9345H129.149C128.155 30.9345 127.466 30.5369 126.931 29.7416C126.166 30.3779 125.249 30.855 124.331 31.0936C123.414 31.4117 122.42 31.4911 121.426 31.4911C120.202 31.4911 118.979 31.2526 117.831 30.855C116.685 30.4573 115.691 29.8212 114.85 29.026C114.009 28.2307 113.32 27.356 112.861 26.3223C112.327 25.2885 112.097 24.1752 112.097 23.0619V18.6087C112.097 16.2231 113.091 14.1555 115.003 12.4855C115.92 11.6903 116.914 11.1336 117.984 10.7361C119.055 10.3384 120.202 10.1794 121.426 10.1794ZM124.79 16.2231C123.872 15.4278 122.725 15.0302 121.426 15.0302C120.814 15.0302 120.278 15.1097 119.743 15.2688C119.208 15.4278 118.673 15.6664 118.291 15.9845C117.908 16.3025 117.526 16.7002 117.297 17.0977C117.067 17.4954 116.914 17.9725 116.914 18.4497V22.9028C116.914 23.38 117.067 23.8571 117.297 24.2547C117.526 24.6523 117.908 25.0499 118.291 25.368C118.749 25.6861 119.208 25.9247 119.743 26.0837C120.278 26.2427 120.89 26.3223 121.426 26.3223C122.037 26.3223 122.573 26.2427 123.108 26.0837C123.643 25.9247 124.178 25.6861 124.56 25.368C124.943 25.0499 125.325 24.6523 125.554 24.2547C125.784 23.8571 125.937 23.38 125.937 22.9028V18.4497C125.937 17.734 125.554 16.9387 124.79 16.2231ZM138.706 30.7754C137.024 30.7754 136.107 29.9008 136.107 28.1513V6.36236C136.107 4.61289 136.948 3.73816 138.706 3.73816H140.924V14.553H151.399V6.36236C151.399 4.61289 152.24 3.73816 154 3.73816H156.217V30.7754H154C152.24 30.7754 151.399 29.9008 151.399 28.1513V19.5629H140.924V30.7754H138.706ZM92.1392 30.7754C90.457 30.7754 89.5395 29.9008 89.5395 28.1513V13.2012C89.5395 11.4518 90.3806 10.577 92.1392 10.577H94.357V18.1315H102.539V13.1217C102.539 11.3722 103.38 10.4975 105.139 10.4975H107.356V30.6164H105.139C103.38 30.6164 102.539 29.7416 102.539 27.9922V23.2209H94.357V30.7754H92.1392ZM170.21 10.1794C171.433 10.1794 172.58 10.3384 173.651 10.7361C174.721 11.1336 175.716 11.6903 176.633 12.4855C178.544 14.1555 179.538 16.2231 179.538 18.6087V23.0619C179.538 24.2547 179.309 25.368 178.774 26.4018C178.239 27.4356 177.551 28.3898 176.633 29.185C175.716 29.9008 174.797 30.4573 173.651 30.855C172.58 31.2526 171.433 31.4911 170.21 31.4911C168.986 31.4911 167.763 31.2526 166.616 30.855C165.469 30.3779 164.475 29.8212 163.634 29.026C162.793 28.2307 162.104 27.356 161.646 26.3223C161.11 25.2885 160.881 24.1752 160.881 23.0619V18.6087C160.881 16.2231 161.875 14.1555 163.787 12.4855C164.704 11.6903 165.699 11.1336 166.769 10.7361C167.839 10.3384 168.986 10.1794 170.21 10.1794ZM173.574 16.2231C172.657 15.4278 171.509 15.0302 170.21 15.0302C169.598 15.0302 169.063 15.1097 168.528 15.2688C167.992 15.4278 167.457 15.6664 167.075 15.9845C166.693 16.3025 166.31 16.7002 166.081 17.0977C165.852 17.4954 165.699 17.9725 165.699 18.4497V22.9028C165.699 23.38 165.852 23.8571 166.081 24.2547C166.31 24.6523 166.693 25.0499 167.075 25.368C167.534 25.6861 167.992 25.9247 168.528 26.0837C169.063 26.2427 169.674 26.3223 170.21 26.3223C170.822 26.3223 171.356 26.2427 171.892 26.0837C172.428 25.9247 172.962 25.6861 173.345 25.368C173.727 25.0499 174.11 24.6523 174.339 24.2547C174.568 23.8571 174.721 23.38 174.721 22.9028V18.4497C174.797 17.734 174.415 16.9387 173.574 16.2231ZM185.809 30.855C184.509 30.855 183.897 30.2188 183.897 28.9465V12.6446C183.897 11.3722 184.509 10.7361 185.809 10.7361H195.596C196.36 10.7361 197.125 10.8951 197.737 11.2132C198.425 11.5313 198.96 11.9289 199.419 12.4855C199.878 13.0422 200.26 13.6784 200.566 14.394C200.872 15.1097 200.949 15.9049 200.949 16.7002C200.949 18.3701 200.49 19.722 199.496 20.8353C200.413 21.9486 200.949 23.3004 200.949 24.9704C200.949 25.8451 200.796 26.6404 200.566 27.356C200.337 28.0717 199.878 28.7079 199.419 29.2645C198.96 29.8212 198.349 30.2188 197.737 30.5369C197.049 30.855 196.36 31.014 195.596 31.014L185.809 30.855ZM188.561 15.0302V18.2905H194.985C195.214 18.2905 195.366 18.2111 195.596 18.1315C195.748 18.052 195.902 17.893 196.055 17.734C196.208 17.5749 196.284 17.4159 196.284 17.1773C196.36 16.9387 196.36 16.7796 196.36 16.5411C196.36 16.3025 196.36 16.1435 196.284 15.9049C196.208 15.6664 196.131 15.5074 196.055 15.3483C195.978 15.1893 195.826 15.1097 195.596 14.9507C195.443 14.8711 195.214 14.7916 194.985 14.7916H188.561V15.0302ZM188.561 26.5608H194.985C195.214 26.5608 195.366 26.4813 195.596 26.4018C195.748 26.3222 195.902 26.1632 196.055 26.0837C196.131 25.9247 196.284 25.7656 196.284 25.527C196.36 25.2885 196.36 25.1294 196.36 24.8909C196.36 24.6523 196.36 24.4932 196.284 24.2547C196.208 24.0161 196.131 23.9366 196.055 23.7775C195.902 23.6185 195.826 23.539 195.596 23.38C195.443 23.3004 195.214 23.2209 194.985 23.2209H188.561V26.5608ZM205.307 6.36236C205.307 4.61289 206.148 3.81768 207.83 3.81768H210.048V6.20332C210.048 7.95279 209.207 8.82754 207.525 8.82754H205.383L205.307 6.36236ZM205.307 13.2012C205.307 11.5313 206.148 10.6565 207.83 10.6565H210.048V30.7754H207.83C206.148 30.7754 205.307 29.9008 205.307 28.2307V13.2012Z" fill="#070034"/>
<path d="M214.635 1.59043H213.794V3.81703H213.412V1.59043H212.571V1.27234H214.635V1.59043ZM216.623 3.41942L216.7 3.18086L216.777 2.9423L217.464 1.27234H218V3.81703H217.618V1.66995L217.542 1.82899L217.388 2.14708L216.7 3.73751H216.394L215.706 2.14708C215.629 1.90851 215.553 1.74947 215.553 1.66995V3.81703H215.171V1.27234H215.629L216.318 2.86277C216.47 3.02181 216.547 3.18086 216.623 3.41942Z" fill="white"/>
<path d="M0 0V34.5123H23.704V0H0ZM23.0923 32.6833H21.9453H1.83515H0.688178L1.83515 31.9676V2.54469L0.688178 1.82899H1.83515H21.9453H23.0923L21.9453 2.54469V31.8881L23.0923 32.6833Z" fill="#0092FF"/>
<path d="M3.59375 30.775H20.1865V3.6582H3.59375V30.775ZM5.35243 5.56672H18.3514H19.4983L18.3514 6.28242V28.2303L19.4983 28.946H18.3514H5.35243H4.20546L5.35243 28.2303V6.28242L4.20546 5.56672H5.35243Z" fill="#0092FF" fill-opacity="0.8"/>
<path d="M16.593 7.39648H7.11133V27.1179H16.593V7.39648ZM15.9812 25.2888H14.8342H8.94648H7.79951L8.94648 24.5731V9.94117L7.79951 9.22546H8.94648H14.8342H15.9812L14.8342 9.94117V24.4936L15.9812 25.2888Z" fill="#0092FF" fill-opacity="0.6"/>
<path d="M34.9445 44.7704L35.3269 45.8041L37.0855 41.1919H38.2324L35.5562 47.6331C35.3269 48.1102 35.0975 48.4283 34.868 48.6669C34.5621 48.9055 34.1799 49.0645 33.6446 49.0645C33.4152 49.0645 33.1858 49.0645 33.0329 48.985C32.8035 48.985 32.6506 48.9055 32.5741 48.8259L32.727 48.0307C32.8035 48.0307 32.9564 48.1102 33.1094 48.1102C33.2623 48.1102 33.4152 48.1898 33.5682 48.1898C33.874 48.1898 34.1034 48.1102 34.2563 47.9512C34.4093 47.7921 34.5621 47.6331 34.6386 47.3945L34.868 46.9174L32.3447 41.1919H33.4917L34.9445 44.7704Z" fill="#0092FF"/>
<path d="M41.5968 45.4065H40.9086V48.9055H39.9146V41.1919H40.9086V44.6113H41.5203L44.273 41.1919H45.42L42.4379 44.8498L45.6493 48.9055H44.426L41.5968 45.4065Z" fill="#0092FF"/>
<path d="M48.0194 45.8041V48.9055H47.0254V41.1919H49.8546C50.6192 41.1919 51.2309 41.4304 51.6897 41.828C52.1485 42.2257 52.3779 42.7823 52.3779 43.498C52.3779 44.2137 52.1485 44.7704 51.6897 45.1679C51.2309 45.5655 50.6192 45.8041 49.8546 45.8041H48.0194ZM48.0194 45.0089H49.8546C50.3898 45.0089 50.7722 44.8498 51.0015 44.6113C51.2309 44.2932 51.3838 43.9751 51.3838 43.5775C51.3838 43.1799 51.2309 42.7823 51.0015 42.4642C50.7722 42.1461 50.3898 42.0666 49.8546 42.0666H48.0194V45.0089Z" fill="#0092FF"/>
<path d="M57.1955 46.9174H54.3663L53.678 48.9055H52.6841L55.3603 41.1919H56.2014L58.8012 48.9055H57.8072L57.1955 46.9174ZM54.7486 46.0427H56.9661L55.8955 42.7028L54.7486 46.0427Z" fill="#0092FF"/>
<path d="M60.4072 40.3968H59.2603V39.363H60.4072V40.3968ZM61.5541 48.9056H60.5601V41.192H61.5541V48.9056ZM62.7776 40.3968H61.6306V39.363H62.7776V40.3968Z" fill="#0092FF"/>
<path d="M69.4301 48.9055H68.436V45.4861H64.8422V48.9055H63.8481V41.1919H64.8422V44.6908H68.436V41.1919H69.4301V48.9055Z" fill="#0092FF"/>
<path d="M76.9229 46.4408C76.9229 47.236 76.6936 47.7927 76.2348 48.2698C75.6996 48.7469 75.0878 48.9855 74.2467 48.9855C73.4056 48.9855 72.7174 48.6675 72.1822 48.0312C71.6469 47.3951 71.4175 46.5999 71.4175 45.6456V44.2937C71.4175 43.3395 71.6469 42.5443 72.1822 41.9081C72.7174 41.2719 73.4056 40.9539 74.2467 40.9539C75.0878 40.9539 75.776 41.1924 76.2348 41.6696C76.7701 42.1467 76.9994 42.7828 76.9229 43.4985H75.929C75.929 42.9419 75.776 42.5443 75.4701 42.2262C75.1642 41.9081 74.7055 41.749 74.1702 41.749C73.635 41.749 73.1762 41.9876 72.7939 42.4648C72.488 42.9419 72.2587 43.4985 72.2587 44.2142V45.5661C72.2587 46.2818 72.4115 46.8384 72.7939 47.3156C73.1762 47.7927 73.5585 48.0312 74.1702 48.0312C74.7055 48.0312 75.1642 47.8722 75.4701 47.5541C75.776 47.236 75.929 46.8384 75.929 46.2818C75.929 46.4409 76.9229 46.4408 76.9229 46.4408Z" fill="#0092FF"/>
<path d="M79.5995 44.2144H81.4347C82.1993 44.2144 82.811 44.453 83.2698 44.8505C83.7286 45.2482 83.958 45.8048 83.958 46.5206C83.958 47.2362 83.7286 47.7928 83.2698 48.1905C82.811 48.5881 82.1993 48.8266 81.4347 48.8266H78.6055V41.113H79.5995V44.2144ZM79.5995 45.0096V48.0314H81.4347C81.9699 48.0314 82.2758 47.8724 82.5816 47.5543C82.811 47.2362 82.9639 46.9181 82.9639 46.441C82.9639 46.0434 82.811 45.6458 82.5816 45.4072C82.3522 45.0891 81.9699 45.0096 81.4347 45.0096H79.5995Z" fill="#0092FF"/>
<path d="M87.3226 45.4065H86.6343V48.9055H85.6401V41.1919H86.6343V44.6113H87.1698L89.9223 41.1919H91.0689L88.0873 44.8498L91.2981 48.9055H90.0751L87.3226 45.4065Z" fill="#0092FF"/>
<path d="M97.3393 41.1919H98.3331V48.9055H97.3393V43.0209L93.7448 48.9055H92.751V41.1919H93.7448V47.0764L97.3393 41.1919Z" fill="#0092FF"/>
<path d="M105.138 41.1923H106.132V48.9059H105.138V43.0213L101.545 48.9059H100.551V41.1923H101.545V47.0768L105.138 41.1923ZM104.833 38.9657C104.833 39.4428 104.756 39.7609 104.45 39.9995C104.144 40.238 103.838 40.397 103.303 40.397C102.844 40.397 102.462 40.238 102.156 39.9995C101.85 39.7609 101.774 39.4428 101.774 38.9657H102.539C102.539 39.2042 102.615 39.3632 102.691 39.5223C102.844 39.6814 102.997 39.7609 103.227 39.7609C103.456 39.7609 103.685 39.6814 103.762 39.5223C103.915 39.3632 103.915 39.2042 103.915 38.9657C104.068 38.9657 104.833 38.9657 104.833 38.9657Z" fill="#0092FF"/>
<path d="M116.685 43.2596C116.685 43.6572 116.532 43.9752 116.302 44.2138C116.073 44.5319 115.768 44.7705 115.308 44.9295C115.768 45.0886 116.15 45.3271 116.379 45.6452C116.609 45.9633 116.762 46.3609 116.762 46.7585C116.762 47.4742 116.456 48.0309 115.92 48.4284C115.385 48.8261 114.697 49.0647 113.779 49.0647C113.014 49.0647 112.327 48.9056 111.791 48.508C111.256 48.1104 110.95 47.5537 110.95 46.8381H111.944C111.944 47.2356 112.097 47.5537 112.48 47.8719C112.785 48.1899 113.244 48.2694 113.779 48.2694C114.391 48.2694 114.85 48.1104 115.232 47.8719C115.615 47.6333 115.768 47.2356 115.768 46.8381C115.768 46.3609 115.615 46.0428 115.308 45.8043C115.003 45.5657 114.544 45.4862 113.933 45.4862H113.014V44.6909H113.933C114.544 44.6909 115.003 44.6115 115.232 44.3729C115.538 44.1343 115.691 43.8162 115.691 43.4186C115.691 43.021 115.538 42.7029 115.232 42.4643C114.927 42.2258 114.467 42.0668 113.855 42.0668C113.397 42.0668 112.938 42.2258 112.632 42.4643C112.327 42.7029 112.173 43.021 112.173 43.4186H111.179C111.179 42.7824 111.409 42.3053 111.944 41.9077C112.48 41.5101 113.092 41.3511 113.855 41.3511C114.697 41.3511 115.461 41.5101 115.92 41.9077C116.456 41.9872 116.685 42.5439 116.685 43.2596Z" fill="#0092FF"/>
<path d="M122.649 46.9174H119.82L119.132 48.9055H118.138L120.814 41.1919H121.655L124.255 48.9055H123.338L122.649 46.9174ZM120.126 46.0427H122.344L121.273 42.7028L120.126 46.0427Z" fill="#0092FF"/>
<path d="M125.861 48.9055V41.1919H128.308C129.072 41.1919 129.684 41.3509 130.143 41.7486C130.602 42.0666 130.831 42.6232 130.831 43.3389C130.831 43.657 130.755 43.9752 130.525 44.2137C130.296 44.4523 130.066 44.6908 129.761 44.8498C130.219 44.9294 130.602 45.168 130.907 45.4861C131.213 45.8836 131.366 46.2813 131.366 46.7584C131.366 47.4741 131.137 48.0307 130.678 48.3488C130.219 48.7465 129.607 48.9055 128.842 48.9055H125.861ZM126.855 44.4523H128.461C128.842 44.4523 129.149 44.3727 129.378 44.1342C129.607 43.8956 129.761 43.657 129.761 43.2595C129.761 42.8618 129.607 42.5438 129.378 42.3052C129.149 42.0666 128.766 41.9871 128.308 41.9871H126.855V44.4523ZM126.855 45.2475V48.0307H128.766C129.225 48.0307 129.607 47.9512 129.837 47.7127C130.066 47.4741 130.219 47.156 130.219 46.6789C130.219 46.2813 130.066 45.8836 129.837 45.6451C129.607 45.4065 129.225 45.2475 128.766 45.2475H128.69H126.855Z" fill="#0092FF"/>
<path d="M138.63 45.7243C138.63 46.6786 138.324 47.4738 137.789 48.11C137.253 48.7462 136.489 49.0643 135.571 49.0643C134.73 49.0643 133.966 48.7462 133.43 48.11C132.895 47.4738 132.589 46.6786 132.589 45.7243V44.3725C132.589 43.4182 132.895 42.623 133.43 41.9868C133.966 41.3507 134.653 41.0326 135.571 41.0326C136.489 41.0326 137.177 41.3507 137.789 41.9868C138.324 42.623 138.63 43.4182 138.63 44.3725V45.7243ZM137.636 44.293C137.636 43.5773 137.483 43.0206 137.1 42.5435C136.718 42.0664 136.259 41.8278 135.648 41.8278C135.036 41.8278 134.577 42.0664 134.272 42.5435C133.889 43.0206 133.736 43.5773 133.736 44.293V45.6448C133.736 46.3605 133.889 46.9171 134.272 47.3943C134.653 47.8714 135.113 48.11 135.648 48.11C136.259 48.11 136.795 47.8714 137.1 47.3943C137.483 46.9171 137.636 46.3605 137.636 45.6448V44.293Z" fill="#0092FF"/>
<path d="M147.194 50.8139H146.2V48.9055H140.695V50.8139H139.701V48.1102H140.236C140.695 48.1102 141.001 47.7921 141.23 47.156C141.46 46.5199 141.613 45.5655 141.689 44.2932L141.842 41.1919H146.2V48.1102H147.194V50.8139ZM142.759 44.2932C142.683 45.168 142.606 45.9632 142.454 46.5993C142.301 47.2355 142.147 47.7127 141.842 48.1102H145.206V41.9871H142.836L142.759 44.2932Z" fill="#0092FF"/>
<path d="M151.782 46.0438H148.8V45.2485H151.782V46.0438Z" fill="#0092FF"/>
<path d="M153.923 48.9055V41.1919H156.369C157.134 41.1919 157.746 41.3509 158.205 41.7486C158.664 42.0666 158.894 42.6232 158.894 43.3389C158.894 43.657 158.816 43.9752 158.587 44.2137C158.358 44.4523 158.129 44.6908 157.822 44.8498C158.282 44.9294 158.664 45.168 158.97 45.4861C159.276 45.8836 159.428 46.2813 159.428 46.7584C159.428 47.4741 159.199 48.0307 158.74 48.3488C158.282 48.7465 157.67 48.9055 156.905 48.9055H153.923ZM154.994 44.4523H156.599C156.981 44.4523 157.288 44.3727 157.517 44.1342C157.746 43.8956 157.899 43.657 157.899 43.2595C157.899 42.8618 157.746 42.5438 157.517 42.3052C157.288 42.0666 156.905 41.9871 156.447 41.9871H154.994V44.4523ZM154.994 45.2475V48.0307H156.905C157.364 48.0307 157.746 47.9512 157.975 47.7127C158.205 47.4741 158.358 47.156 158.358 46.6789C158.358 46.2813 158.205 45.8836 157.975 45.6451C157.746 45.4065 157.364 45.2475 156.905 45.2475H156.829H154.994Z" fill="#0092FF"/>
<path d="M165.698 41.1919H166.693V48.9055H165.698V43.0209L162.104 48.9055H161.11V41.1919H162.104V47.0764L165.698 41.1919Z" fill="#0092FF"/>
<path d="M169.828 45.8041V48.9055H168.833V41.1919H171.663C172.427 41.1919 173.039 41.4304 173.498 41.828C173.956 42.2257 174.186 42.7823 174.186 43.498C174.186 44.2137 173.956 44.7704 173.498 45.1679C173.039 45.5655 172.427 45.8041 171.663 45.8041H169.828ZM169.828 45.0089H171.663C172.197 45.0089 172.58 44.8498 172.809 44.6113C173.039 44.2932 173.192 43.9751 173.192 43.5775C173.192 43.1799 173.039 42.7823 172.809 42.4642C172.58 42.1461 172.197 42.0666 171.663 42.0666H169.828V45.0089Z" fill="#0092FF"/>
<path d="M181.604 45.7243C181.604 46.6786 181.297 47.4738 180.763 48.11C180.227 48.7462 179.462 49.0643 178.545 49.0643C177.704 49.0643 176.939 48.7462 176.404 48.11C175.869 47.4738 175.562 46.6786 175.562 45.7243V44.3725C175.562 43.4182 175.869 42.623 176.404 41.9868C176.939 41.3507 177.627 41.0326 178.545 41.0326C179.462 41.0326 180.151 41.3507 180.763 41.9868C181.297 42.623 181.604 43.4182 181.604 44.3725V45.7243ZM180.533 44.293C180.533 43.5773 180.38 43.0206 179.998 42.5435C179.615 42.0664 179.157 41.8278 178.545 41.8278C177.933 41.8278 177.475 42.0664 177.168 42.5435C176.786 43.0206 176.634 43.5773 176.634 44.293V45.6448C176.634 46.3605 176.786 46.9171 177.168 47.3943C177.551 47.8714 178.009 48.11 178.545 48.11C179.157 48.11 179.692 47.8714 179.998 47.3943C180.304 46.9171 180.533 46.3605 180.533 45.6448V44.293Z" fill="#0092FF"/>
<path d="M187.95 41.9878H184.356V44.2144H186.191C186.956 44.2144 187.568 44.453 188.026 44.8505C188.485 45.2482 188.714 45.8048 188.714 46.5206C188.714 47.2362 188.485 47.7928 188.026 48.1905C187.568 48.5881 186.956 48.8266 186.191 48.8266H183.362V41.113H187.95V41.9878ZM184.433 45.0096V48.0314H186.268C186.803 48.0314 187.109 47.8724 187.414 47.5543C187.644 47.2362 187.797 46.9181 187.797 46.441C187.797 46.0434 187.644 45.6458 187.414 45.4072C187.185 45.0891 186.803 45.0096 186.268 45.0096H184.433Z" fill="#0092FF"/>
<path d="M196.131 48.9055H195.138V45.4861H191.543V48.9055H190.549V41.1919H191.543V44.6908H195.138V41.1919H196.131V48.9055Z" fill="#0092FF"/>
<path d="M202.937 41.1919H203.931V48.9055H202.937V43.0209L199.343 48.9055H198.273V41.1919H199.267V47.0764L202.937 41.1919Z" fill="#0092FF"/>
<path d="M207.678 45.4065H206.989V48.9055H205.996V41.1919H206.989V44.6113H207.525L210.278 41.1919H211.424L208.443 44.8498L211.654 48.9055H210.507L207.678 45.4065Z" fill="#0092FF"/>
</g>
</g>
<defs>
<clipPath id="clip0_1_2222">
<rect width="218" height="51.4961" fill="white"/>
</clipPath>
<clipPath id="clip1_1_2222">
<rect width="218" height="51.4961" fill="white"/>
</clipPath>
</defs>
</svg>
