<svg width="212" height="51" viewBox="0 0 212 51" fill="none" xmlns="http://www.w3.org/2000/svg">
<g clip-path="url(#clip0_1_1908)">
<g clip-path="url(#clip1_1_1908)">
<g clip-path="url(#clip2_1_1908)">
<path d="M33.685 29.9263C31.9747 29.9263 31.1567 29.0757 31.1567 27.3744V6.18516C31.1567 4.48383 31.9747 3.63318 33.685 3.63318H44.021C45.062 3.63318 46.0287 3.86518 46.921 4.25183C47.8133 4.6385 48.5569 5.25717 49.1518 5.95316C49.8211 6.64915 50.2672 7.49982 50.639 8.42783C51.0108 9.35578 51.1595 10.4385 51.1595 11.5211C51.1595 13.6864 50.5647 15.1557 49.3005 16.625C50.5647 18.0944 51.1595 19.8731 51.1595 22.0384C51.1595 23.121 51.0108 24.2037 50.639 25.1317C50.2672 26.0597 49.7467 26.9104 49.1518 27.6063C48.4826 28.3023 47.739 28.8437 46.921 29.2304C46.0287 29.617 45.062 29.849 44.0953 29.849L33.685 29.9263ZM35.8414 8.50511V14.5371H44.021C44.3928 14.5371 44.7646 14.4598 45.062 14.3051C45.3595 14.1504 45.6569 13.9185 45.8056 13.6091C45.9543 13.2998 46.1774 12.9904 46.2518 12.6811C46.3261 12.2945 46.4005 11.9078 46.4005 11.5211C46.4005 11.1345 46.3261 10.7478 46.2518 10.3611C46.1774 9.97451 45.9543 9.6651 45.8056 9.43316C45.5825 9.12384 45.3595 8.96918 44.9877 8.73715C44.6902 8.58249 44.3184 8.50511 43.9466 8.50511H35.8414ZM35.8414 25.0544H44.021C44.3928 25.0544 44.7646 24.977 45.062 24.8224C45.3595 24.6677 45.6569 24.4357 45.8056 24.2037C46.0287 23.8944 46.1774 23.5851 46.2518 23.2757C46.3261 22.8891 46.4005 22.5024 46.4005 22.1157C46.4005 21.7291 46.3261 21.3424 46.2518 20.9557C46.1774 20.5691 45.9543 20.2598 45.7312 19.9504C45.5081 19.641 45.2851 19.4091 44.9133 19.2544C44.6158 19.0998 44.2441 19.0224 43.8722 19.0224H35.6927L35.8414 25.0544ZM55.7699 6.18516C55.7699 4.48383 56.5878 3.71051 58.2237 3.71051H60.3802V6.03049C60.3802 7.73181 59.5622 8.58249 57.8519 8.58249H55.7699V6.18516ZM55.7699 12.8358C55.7699 11.2118 56.5878 10.3611 58.2237 10.3611H60.3802V30.0037H58.2237C56.5878 30.0037 55.7699 29.153 55.7699 27.529V12.8358ZM65.5854 12.8358C65.5854 11.1345 66.4033 10.3611 68.0392 10.3611H70.1956V17.7077H70.9393C71.2367 17.7077 71.5341 17.7077 71.7572 17.7077C71.9803 17.7077 72.2777 17.6304 72.4265 17.3984L75.6983 11.9078C75.9957 11.4438 76.3675 11.0571 76.8137 10.7478C77.2598 10.4385 77.706 10.3611 78.2265 10.3611H81.9445L77.1854 18.4038C77.1112 18.5584 76.9624 18.7131 76.8137 18.9451C77.3342 19.2544 77.7804 19.7184 78.1521 20.1824C78.524 20.7237 78.8957 21.2651 79.1932 21.961L82.5394 29.9263H79.4907C78.8958 29.9263 78.3009 29.7716 77.9291 29.5397C77.5573 29.3077 77.1854 28.921 76.9624 28.457L75.0291 23.8944C74.7316 23.1984 74.2111 22.5797 73.4675 22.5797H70.1956V30.0037H68.0392C66.4033 30.0037 65.5854 29.153 65.5854 27.529C65.5854 27.4517 65.5854 12.8358 65.5854 12.8358ZM118.084 9.89714C119.273 9.89714 120.388 10.0518 121.43 10.4385C122.471 10.8251 123.437 11.3664 124.329 12.1397C126.188 13.7638 127.156 15.7745 127.156 18.0944V30.081H125.594C124.627 30.081 123.958 29.6943 123.437 28.921C122.694 29.5397 121.801 30.0037 120.909 30.2357C120.017 30.545 119.05 30.6223 118.084 30.6223C116.894 30.6223 115.704 30.3904 114.588 30.0037C113.473 29.617 112.507 28.9983 111.689 28.225C110.871 27.4517 110.201 26.601 109.755 25.5957C109.235 24.5904 109.011 23.5077 109.011 22.4251V18.0944C109.011 15.7745 109.979 13.7638 111.837 12.1397C112.73 11.3664 113.696 10.8251 114.737 10.4385C115.779 10.0518 116.894 9.89714 118.084 9.89714ZM121.356 15.7745C120.463 15.0011 119.347 14.6145 118.084 14.6145C117.489 14.6145 116.968 14.6918 116.447 14.8464C115.927 15.0011 115.406 15.2331 115.035 15.5424C114.663 15.8517 114.291 16.2384 114.068 16.625C113.845 17.0117 113.696 17.4757 113.696 17.9398V22.2703C113.696 22.7344 113.845 23.1984 114.068 23.5851C114.291 23.9717 114.663 24.3584 115.035 24.6677C115.481 24.977 115.927 25.209 116.447 25.3637C116.968 25.5184 117.563 25.5957 118.084 25.5957C118.678 25.5957 119.199 25.5184 119.72 25.3637C120.24 25.209 120.761 24.977 121.132 24.6677C121.504 24.3584 121.876 23.9717 122.098 23.5851C122.322 23.1984 122.471 22.7344 122.471 22.2703V17.9398C122.471 17.2438 122.098 16.4704 121.356 15.7745ZM134.889 29.9263C133.253 29.9263 132.36 29.0757 132.36 27.3744V6.18516C132.36 4.48383 133.178 3.63318 134.889 3.63318H137.045V14.1504H147.232V6.18516C147.232 4.48383 148.05 3.63318 149.761 3.63318H151.917V29.9263H149.761C148.05 29.9263 147.232 29.0757 147.232 27.3744V19.0224H137.045V29.9263H134.889ZM89.6032 29.9263C87.9673 29.9263 87.0751 29.0757 87.0751 27.3744V12.8358C87.0751 11.1345 87.893 10.2838 89.6032 10.2838H91.7599V17.6304H99.7166V12.7585C99.7166 11.0571 100.535 10.2065 102.245 10.2065H104.401V29.7716H102.245C100.535 29.7716 99.7166 28.921 99.7166 27.2197V22.5797H91.7599V29.9263H89.6032ZM165.525 9.89714C166.714 9.89714 167.83 10.0518 168.871 10.4385C169.912 10.8251 170.879 11.3664 171.772 12.1397C173.63 13.7638 174.597 15.7745 174.597 18.0944V22.4251C174.597 23.5851 174.374 24.6677 173.853 25.673C173.333 26.6784 172.664 27.6063 171.772 28.3797C170.879 29.0757 169.986 29.617 168.871 30.0037C167.83 30.3904 166.714 30.6223 165.525 30.6223C164.335 30.6223 163.146 30.3904 162.03 30.0037C160.915 29.5397 159.948 28.9983 159.13 28.225C158.312 27.4517 157.643 26.601 157.197 25.5957C156.676 24.5904 156.453 23.5077 156.453 22.4251V18.0944C156.453 15.7745 157.42 13.7638 159.279 12.1397C160.171 11.3664 161.138 10.8251 162.179 10.4385C163.22 10.0518 164.335 9.89714 165.525 9.89714ZM168.797 15.7745C167.905 15.0011 166.789 14.6145 165.525 14.6145C164.93 14.6145 164.41 14.6918 163.889 14.8464C163.368 15.0011 162.848 15.2331 162.476 15.5424C162.105 15.8517 161.732 16.2384 161.51 16.625C161.287 17.0117 161.138 17.4757 161.138 17.9398V22.2703C161.138 22.7344 161.287 23.1984 161.51 23.5851C161.732 23.9717 162.105 24.3584 162.476 24.6677C162.923 24.977 163.368 25.209 163.889 25.3637C164.41 25.5184 165.004 25.5957 165.525 25.5957C166.12 25.5957 166.64 25.5184 167.161 25.3637C167.682 25.209 168.202 24.977 168.574 24.6677C168.945 24.3584 169.318 23.9717 169.541 23.5851C169.763 23.1984 169.912 22.7344 169.912 22.2703V17.9398C169.986 17.2438 169.615 16.4704 168.797 15.7745ZM180.695 30.0037C179.43 30.0037 178.835 29.385 178.835 28.1477V12.2945C178.835 11.0571 179.43 10.4385 180.695 10.4385H190.212C190.956 10.4385 191.7 10.5931 192.295 10.9025C192.964 11.2118 193.484 11.5985 193.931 12.1397C194.376 12.6811 194.749 13.2998 195.046 13.9957C195.344 14.6918 195.418 15.4651 195.418 16.2384C195.418 17.8624 194.971 19.1771 194.005 20.2598C194.897 21.3424 195.418 22.657 195.418 24.281C195.418 25.1317 195.269 25.9051 195.046 26.601C194.823 27.297 194.376 27.9157 193.931 28.457C193.484 28.9983 192.89 29.385 192.295 29.6943C191.625 30.0037 190.956 30.1583 190.212 30.1583L180.695 30.0037ZM183.371 14.6145V17.785H189.618C189.841 17.785 189.989 17.7077 190.212 17.6304C190.361 17.5531 190.51 17.3984 190.659 17.2438C190.807 17.0891 190.882 16.9345 190.882 16.7024C190.956 16.4704 190.956 16.3157 190.956 16.0838C190.956 15.8517 190.956 15.6971 190.882 15.4651C190.807 15.2331 190.733 15.0784 190.659 14.9238C190.585 14.7691 190.436 14.6918 190.212 14.5371C190.064 14.4597 189.841 14.3824 189.618 14.3824H183.371V14.6145ZM183.371 25.8277H189.618C189.841 25.8277 189.989 25.7504 190.212 25.673C190.361 25.5957 190.51 25.441 190.659 25.3637C190.733 25.209 190.882 25.0544 190.882 24.8224C190.956 24.5904 190.956 24.4357 190.956 24.2037C190.956 23.9717 190.956 23.817 190.882 23.5851C190.807 23.353 190.733 23.2757 190.659 23.121C190.51 22.9664 190.436 22.8891 190.212 22.7344C190.064 22.657 189.841 22.5797 189.618 22.5797H183.371V25.8277ZM199.656 6.18516C199.656 4.48383 200.474 3.71051 202.11 3.71051H204.267V6.03049C204.267 7.73181 203.449 8.58249 201.813 8.58249H199.731L199.656 6.18516ZM199.656 12.8358C199.656 11.2118 200.474 10.3611 202.11 10.3611H204.267V29.9263H202.11C200.474 29.9263 199.656 29.0757 199.656 27.4517V12.8358Z" fill="white"/>
<path d="M208.728 1.54518H207.91V3.71049H207.539V1.54518H206.721V1.23584H208.728V1.54518ZM210.661 3.32383L210.735 3.09183L210.81 2.85984L211.479 1.23584H212V3.71049H211.628V1.62251L211.554 1.77717L211.405 2.0865L210.735 3.63316H210.438L209.769 2.0865C209.695 1.8545 209.62 1.69984 209.62 1.62251V3.71049H209.249V1.23584H209.695L210.364 2.7825C210.512 2.93716 210.587 3.09183 210.661 3.32383Z" fill="white"/>
<path d="M0 -0.00109863V33.5613H23.0516V-0.00109863H0ZM21.3413 31.7827H1.78464V1.77756H21.3413V31.7827Z" fill="white"/>
<path d="M3.49512 29.9263H19.6312V3.55579H3.49512V29.9263ZM5.20539 5.41178H17.8465V28.1476H5.20539V5.41178Z" fill="white" fill-opacity="0.8"/>
<path d="M16.1357 7.19104H6.91504V26.3696H16.1357V7.19104ZM14.4253 24.5909H8.69968V8.96968H14.4253V24.5909Z" fill="white" fill-opacity="0.6"/>
<path d="M33.9828 43.5367L34.3547 44.5421L36.0649 40.0568H37.1803L34.5777 46.3207C34.3547 46.7847 34.1316 47.094 33.9085 47.326C33.611 47.5581 33.2392 47.7127 32.7187 47.7127C32.4956 47.7127 32.2725 47.7127 32.1238 47.6353C31.9007 47.6353 31.7521 47.5581 31.6777 47.4807L31.8263 46.7074C31.9007 46.7074 32.0494 46.7847 32.1982 46.7847C32.3469 46.7847 32.4956 46.862 32.6444 46.862C32.9418 46.862 33.1649 46.7847 33.3136 46.63C33.4623 46.4754 33.611 46.3207 33.6853 46.0887L33.9085 45.6247L31.4546 40.0568H32.57L33.9828 43.5367Z" fill="white"/>
<path d="M40.4518 44.1554H39.7826V47.5581H38.8159V40.0568H39.7826V43.3821H40.3775L43.0544 40.0568H44.1698L41.2698 43.614L44.3929 47.5581H43.2032L40.4518 44.1554Z" fill="white"/>
<path d="M46.6981 44.5421V47.5581H45.7314V40.0568H48.4828C49.2264 40.0568 49.8212 40.2887 50.2674 40.6754C50.7135 41.0621 50.9366 41.6034 50.9366 42.2994C50.9366 42.9954 50.7135 43.5367 50.2674 43.9233C49.8212 44.31 49.2264 44.5421 48.4828 44.5421H46.6981ZM46.6981 43.7687H48.4828C49.0033 43.7687 49.3751 43.614 49.5981 43.3821C49.8212 43.0728 49.9699 42.7634 49.9699 42.3767C49.9699 41.9901 49.8212 41.6034 49.5981 41.294C49.3751 40.9847 49.0033 40.9074 48.4828 40.9074H46.6981V43.7687Z" fill="white"/>
<path d="M55.6216 45.6247H52.8703L52.201 47.5581H51.2344L53.837 40.0568H54.6549L57.1831 47.5581H56.2165L55.6216 45.6247ZM53.242 44.774H55.3985L54.3575 41.5261L53.242 44.774Z" fill="white"/>
<path d="M58.7442 39.2841H57.6289V38.2788H58.7442V39.2841ZM59.8597 47.5587H58.893V40.0574H59.8597V47.5587ZM61.0494 39.2841H59.934V38.2788H61.0494V39.2841Z" fill="white"/>
<path d="M67.5191 47.5581H66.5524V44.2327H63.0575V47.5581H62.0908V40.0568H63.0575V43.4594H66.5524V40.0568H67.5191V47.5581Z" fill="white"/>
<path d="M74.8061 45.1614C74.8061 45.9347 74.583 46.4761 74.1368 46.94C73.6164 47.404 73.0214 47.6361 72.2035 47.6361C71.3855 47.6361 70.7163 47.3267 70.1958 46.708C69.6752 46.0894 69.4521 45.3161 69.4521 44.388V43.0734C69.4521 42.1454 69.6752 41.3721 70.1958 40.7534C70.7163 40.1348 71.3855 39.8254 72.2035 39.8254C73.0214 39.8254 73.6907 40.0574 74.1368 40.5215C74.6574 40.9854 74.8804 41.6041 74.8061 42.3001H73.8395C73.8395 41.7587 73.6907 41.3721 73.3933 41.0627C73.0958 40.7534 72.6497 40.5987 72.1291 40.5987C71.6086 40.5987 71.1624 40.8308 70.7907 41.2947C70.4932 41.7587 70.2702 42.3001 70.2702 42.9961V44.3107C70.2702 45.0068 70.4188 45.548 70.7907 46.0121C71.1624 46.4761 71.5343 46.708 72.1291 46.708C72.6497 46.708 73.0958 46.5534 73.3933 46.244C73.6907 45.9347 73.8395 45.548 73.8395 45.0068C73.8395 45.1614 74.8061 45.1614 74.8061 45.1614Z" fill="white"/>
<path d="M77.4091 42.9954H79.1937C79.9373 42.9954 80.5321 43.2274 80.9783 43.614C81.4245 44.0007 81.6476 44.542 81.6476 45.2381C81.6476 45.934 81.4245 46.4753 80.9783 46.862C80.5321 47.2487 79.9373 47.4807 79.1937 47.4807H76.4424V39.9794H77.4091V42.9954ZM77.4091 43.7687V46.7074H79.1937C79.7142 46.7074 80.0117 46.5527 80.3091 46.2434C80.5322 45.934 80.6809 45.6247 80.6809 45.1607C80.6809 44.774 80.5322 44.3874 80.3091 44.1554C80.086 43.846 79.7142 43.7687 79.1937 43.7687H77.4091Z" fill="white"/>
<path d="M84.9194 44.1554H84.25V47.5581H83.2832V40.0568H84.25V43.3821H84.7708L87.4475 40.0568H88.5626L85.663 43.614L88.7854 47.5581H87.5961L84.9194 44.1554Z" fill="white"/>
<path d="M94.6603 40.0568H95.6268V47.5581H94.6603V41.8354L91.1648 47.5581H90.1982V40.0568H91.1648V45.7793L94.6603 40.0568Z" fill="white"/>
<path d="M102.245 40.0579H103.211V47.5592H102.245V41.8365L98.7502 47.5592H97.7837V40.0579H98.7502V45.7805L102.245 40.0579ZM101.948 37.8926C101.948 38.3566 101.873 38.6659 101.575 38.8979C101.278 39.1299 100.98 39.2845 100.46 39.2845C100.014 39.2845 99.6424 39.1299 99.3445 38.8979C99.0473 38.6659 98.9731 38.3566 98.9731 37.8926H99.7167C99.7167 38.1245 99.791 38.2792 99.8653 38.4338C100.014 38.5886 100.162 38.6659 100.386 38.6659C100.609 38.6659 100.832 38.5886 100.906 38.4338C101.056 38.2792 101.056 38.1245 101.056 37.8926C101.204 37.8926 101.948 37.8926 101.948 37.8926Z" fill="white"/>
<path d="M113.474 42.0677C113.474 42.4543 113.325 42.7636 113.101 42.9956C112.878 43.305 112.581 43.537 112.135 43.6916C112.581 43.8463 112.953 44.0783 113.176 44.3877C113.399 44.697 113.548 45.0836 113.548 45.4703C113.548 46.1663 113.251 46.7076 112.73 47.0942C112.209 47.4809 111.54 47.713 110.647 47.713C109.904 47.713 109.235 47.5583 108.714 47.1716C108.194 46.7849 107.896 46.2436 107.896 45.5476H108.863C108.863 45.9343 109.012 46.2436 109.384 46.553C109.681 46.8623 110.127 46.9396 110.647 46.9396C111.243 46.9396 111.689 46.7849 112.061 46.553C112.433 46.3209 112.581 45.9343 112.581 45.5476C112.581 45.0836 112.433 44.7743 112.135 44.5423C111.838 44.3103 111.391 44.233 110.797 44.233H109.904V43.4596H110.797C111.391 43.4596 111.838 43.3823 112.061 43.1503C112.358 42.9183 112.507 42.6089 112.507 42.2223C112.507 41.8356 112.358 41.5263 112.061 41.2943C111.763 41.0623 111.317 40.9077 110.722 40.9077C110.276 40.9077 109.83 41.0623 109.532 41.2943C109.235 41.5263 109.086 41.8356 109.086 42.2223H108.119C108.119 41.6036 108.343 41.1396 108.863 40.753C109.384 40.3663 109.979 40.2117 110.722 40.2117C111.54 40.2117 112.283 40.3663 112.73 40.753C113.251 40.8303 113.474 41.3717 113.474 42.0677Z" fill="white"/>
<path d="M119.273 45.6247H116.522L115.853 47.5581H114.886L117.489 40.0568H118.307L120.835 47.5581H119.943L119.273 45.6247ZM116.819 44.774H118.976L117.934 41.5261L116.819 44.774Z" fill="white"/>
<path d="M122.397 47.5581V40.0568H124.777C125.52 40.0568 126.114 40.2114 126.561 40.5981C127.008 40.9074 127.23 41.4487 127.23 42.1447C127.23 42.454 127.156 42.7634 126.932 42.9954C126.71 43.2274 126.487 43.4594 126.19 43.614C126.635 43.6914 127.008 43.9234 127.305 44.2327C127.602 44.6194 127.75 45.006 127.75 45.47C127.75 46.166 127.528 46.7074 127.082 47.0167C126.635 47.4034 126.04 47.5581 125.297 47.5581H122.397ZM123.363 43.2274H124.925C125.297 43.2274 125.594 43.15 125.817 42.9181C126.04 42.6861 126.19 42.454 126.19 42.0674C126.19 41.6807 126.04 41.3714 125.817 41.1394C125.594 40.9074 125.222 40.8301 124.777 40.8301H123.363V43.2274ZM123.363 44.0007V46.7074H125.222C125.669 46.7074 126.04 46.63 126.264 46.3981C126.487 46.166 126.635 45.8567 126.635 45.3927C126.635 45.006 126.487 44.6194 126.264 44.3874C126.04 44.1554 125.669 44.0007 125.222 44.0007H125.148H123.363Z" fill="white"/>
<path d="M134.814 44.4654C134.814 45.3935 134.517 46.1668 133.996 46.7854C133.475 47.4041 132.733 47.7134 131.839 47.7134C131.022 47.7134 130.279 47.4041 129.758 46.7854C129.237 46.1668 128.94 45.3935 128.94 44.4654V43.1508C128.94 42.2228 129.237 41.4494 129.758 40.8308C130.279 40.2122 130.947 39.9028 131.839 39.9028C132.733 39.9028 133.401 40.2122 133.996 40.8308C134.517 41.4494 134.814 42.2228 134.814 43.1508V44.4654ZM133.848 43.0735C133.848 42.3775 133.699 41.8361 133.327 41.3721C132.955 40.9082 132.509 40.6761 131.915 40.6761C131.32 40.6761 130.873 40.9082 130.576 41.3721C130.204 41.8361 130.055 42.3775 130.055 43.0735V44.3881C130.055 45.0841 130.204 45.6254 130.576 46.0895C130.947 46.5535 131.394 46.7854 131.915 46.7854C132.509 46.7854 133.03 46.5535 133.327 46.0895C133.699 45.6254 133.848 45.0841 133.848 44.3881V43.0735Z" fill="white"/>
<path d="M143.142 49.414H142.176V47.5581H136.822V49.414H135.856V46.7847H136.376C136.822 46.7847 137.12 46.4754 137.342 45.8567C137.566 45.2381 137.715 44.31 137.789 43.0728L137.938 40.0568H142.176V46.7847H143.142V49.414ZM138.83 43.0728C138.756 43.9234 138.681 44.6967 138.533 45.3154C138.384 45.934 138.235 46.3981 137.938 46.7847H141.209V40.8301H138.904L138.83 43.0728Z" fill="white"/>
<path d="M147.605 44.7742H144.705V44.0009H147.605V44.7742Z" fill="white"/>
<path d="M149.687 47.5581V40.0568H152.066C152.809 40.0568 153.405 40.2114 153.851 40.5981C154.297 40.9074 154.52 41.4487 154.52 42.1447C154.52 42.454 154.445 42.7634 154.222 42.9954C154 43.2274 153.777 43.4594 153.479 43.614C153.925 43.6914 154.297 43.9234 154.595 44.2327C154.892 44.6194 155.04 45.006 155.04 45.47C155.04 46.166 154.818 46.7074 154.371 47.0167C153.925 47.4034 153.33 47.5581 152.587 47.5581H149.687ZM150.728 43.2274H152.289C152.661 43.2274 152.959 43.15 153.182 42.9181C153.405 42.6861 153.553 42.454 153.553 42.0674C153.553 41.6807 153.405 41.3714 153.182 41.1394C152.959 40.9074 152.587 40.8301 152.141 40.8301H150.728V43.2274ZM150.728 44.0007V46.7074H152.587C153.033 46.7074 153.405 46.63 153.627 46.3981C153.851 46.166 154 45.8567 154 45.3927C154 45.006 153.851 44.6194 153.627 44.3874C153.405 44.1554 153.033 44.0007 152.587 44.0007H152.512H150.728Z" fill="white"/>
<path d="M161.137 40.0568H162.105V47.5581H161.137V41.8354L157.643 47.5581H156.676V40.0568H157.643V45.7793L161.137 40.0568Z" fill="white"/>
<path d="M165.153 44.5421V47.5581H164.186V40.0568H166.938C167.682 40.0568 168.276 40.2887 168.722 40.6754C169.168 41.0621 169.392 41.6034 169.392 42.2994C169.392 42.9954 169.168 43.5367 168.722 43.9233C168.276 44.31 167.682 44.5421 166.938 44.5421H165.153ZM165.153 43.7687H166.938C167.458 43.7687 167.83 43.614 168.053 43.3821C168.276 43.0728 168.425 42.7634 168.425 42.3767C168.425 41.9901 168.276 41.6034 168.053 41.294C167.83 40.9847 167.458 40.9074 166.938 40.9074H165.153V43.7687Z" fill="white"/>
<path d="M176.606 44.4654C176.606 45.3935 176.308 46.1668 175.788 46.7854C175.267 47.4041 174.523 47.7134 173.631 47.7134C172.813 47.7134 172.069 47.4041 171.548 46.7854C171.028 46.1668 170.73 45.3935 170.73 44.4654V43.1508C170.73 42.2228 171.028 41.4494 171.548 40.8308C172.069 40.2122 172.739 39.9028 173.631 39.9028C174.523 39.9028 175.192 40.2122 175.788 40.8308C176.308 41.4494 176.606 42.2228 176.606 43.1508V44.4654ZM175.564 43.0735C175.564 42.3775 175.415 41.8361 175.044 41.3721C174.672 40.9082 174.226 40.6761 173.631 40.6761C173.036 40.6761 172.59 40.9082 172.292 41.3721C171.921 41.8361 171.772 42.3775 171.772 43.0735V44.3881C171.772 45.0841 171.921 45.6254 172.292 46.0895C172.664 46.5535 173.11 46.7854 173.631 46.7854C174.226 46.7854 174.746 46.5535 175.044 46.0895C175.341 45.6254 175.564 45.0841 175.564 44.3881V43.0735Z" fill="white"/>
<path d="M182.777 40.83H179.282V42.9954H181.066C181.81 42.9954 182.405 43.2274 182.851 43.614C183.297 44.0007 183.52 44.542 183.52 45.2381C183.52 45.934 183.297 46.4753 182.851 46.862C182.405 47.2487 181.81 47.4807 181.066 47.4807H178.315V39.9794H182.777V40.83ZM179.356 43.7687V46.7074H181.141C181.662 46.7074 181.959 46.5527 182.256 46.2434C182.479 45.934 182.628 45.6247 182.628 45.1607C182.628 44.774 182.479 44.3874 182.256 44.1554C182.033 43.846 181.662 43.7687 181.141 43.7687H179.356Z" fill="white"/>
<path d="M190.733 47.5581H189.767V44.2327H186.271V47.5581H185.305V40.0568H186.271V43.4594H189.767V40.0568H190.733V47.5581Z" fill="white"/>
<path d="M197.351 40.0568H198.318V47.5581H197.351V41.8354L193.857 47.5581H192.816V40.0568H193.782V45.7793L197.351 40.0568Z" fill="white"/>
<path d="M201.962 44.1554H201.292V47.5581H200.326V40.0568H201.292V43.3821H201.813L204.49 40.0568H205.605L202.705 43.614L205.829 47.5581H204.713L201.962 44.1554Z" fill="white"/>
</g>
</g>
</g>
<defs>
<clipPath id="clip0_1_1908">
<rect width="212" height="50.0787" fill="white"/>
</clipPath>
<clipPath id="clip1_1_1908">
<rect width="212" height="50.0787" fill="white" transform="translate(0 -0.000366211)"/>
</clipPath>
<clipPath id="clip2_1_1908">
<rect width="212" height="50.0787" fill="white" transform="translate(0 -0.000732422)"/>
</clipPath>
</defs>
</svg>
