<svg width="27" height="22" viewBox="0 0 27 22" fill="none" xmlns="http://www.w3.org/2000/svg">
<g clip-path="url(#clip0_1_1952)">
<path d="M25.2828 4.47028C25.1375 3.9565 24.6713 3.57436 24.102 3.50227C20.529 3.04975 16.905 2.82031 13.3305 2.82031C9.75611 2.82031 6.13289 3.04975 2.56184 3.50234C1.99251 3.57449 1.5264 3.95663 1.38109 4.47034C-0.0176556 9.41617 -0.0176556 14.2246 1.38109 19.1703C1.5264 19.6841 1.99258 20.0663 2.56198 20.1384C6.13544 20.5909 9.75973 20.8203 13.3341 20.8203C16.9085 20.8203 20.5315 20.5909 24.1021 20.1383C24.6714 20.0661 25.1374 19.6841 25.2827 19.1704C26.6818 14.2252 26.6818 9.41676 25.2828 4.47028ZM17.8778 12.7472L12.5993 16.4945C12.3742 16.6545 12.102 16.7365 11.8284 16.7365C11.6381 16.7365 11.4469 16.6969 11.2694 16.6161C10.8371 16.4194 10.5636 16.0128 10.5636 15.5676V8.07298C10.5636 7.62768 10.8372 7.22114 11.2694 7.02443C11.7018 6.82765 12.2172 6.87481 12.5993 7.14603L17.8778 10.8933C18.1896 11.1145 18.3723 11.4571 18.3723 11.8202C18.3722 12.1834 18.1896 12.526 17.8778 12.7472Z" fill="white"/>
</g>
<defs>
<clipPath id="clip0_1_1952">
<rect width="27" height="22" fill="white"/>
</clipPath>
</defs>
</svg>
