<svg width="29" height="19" viewBox="0 0 29 19" fill="none" xmlns="http://www.w3.org/2000/svg">
<path d="M27.349 1.74157C27.1897 1.19926 26.6787 0.795909 26.0547 0.719821C22.1382 0.242179 18.1659 0 14.2478 0C10.3299 0 6.35841 0.242179 2.44412 0.719891C1.82008 0.796048 1.30917 1.1994 1.14989 1.74164C-0.383297 6.96206 -0.383297 12.0374 1.14989 17.2578C1.30917 17.8 1.82016 18.2034 2.44428 18.2795C6.36121 18.7572 10.3339 18.9993 14.2517 18.9993C18.1697 18.9993 22.1409 18.7572 26.0547 18.2795C26.6788 18.2033 27.1896 17.8 27.3489 17.2578C28.8824 12.0381 28.8824 6.96268 27.349 1.74157ZM19.2322 10.478L13.4464 14.4334C13.1996 14.6023 12.9012 14.6888 12.6014 14.6888C12.3927 14.6888 12.1832 14.647 11.9886 14.5618C11.5148 14.3541 11.215 13.9249 11.215 13.455V5.54429C11.215 5.07427 11.5149 4.64516 11.9886 4.43752C12.4625 4.22982 13.0275 4.2796 13.4464 4.56588L19.2322 8.5212C19.574 8.75472 19.7742 9.11633 19.7742 9.49961C19.7741 9.88288 19.5739 10.2445 19.2322 10.478Z" fill="#061027"/>
</svg>
